<svg width="39" height="62" viewBox="0 0 39 62" fill="none" xmlns="http://www.w3.org/2000/svg">
<g filter="url(#filter0_i_39_4452)">
<path d="M20.7795 60.9938C20.0728 61.7005 18.9272 61.7005 18.2205 60.9938L1.03001 43.8035C0.323329 43.0968 0.323329 41.951 1.03001 41.2444L18.2205 24.054C18.9272 23.3473 20.0728 23.3473 20.7795 24.054L37.97 41.2444C38.6767 41.9511 38.6767 43.0969 37.97 43.8035L20.7795 60.9938ZM20.7795 19.3748C20.0728 20.0815 18.9272 20.0815 18.2205 19.3748L10.0776 11.2319C9.37093 10.5252 9.37093 9.37946 10.0776 8.6729L18.2205 0.530012C18.9272 -0.176671 20.0728 -0.176671 20.7795 0.530012L28.9224 8.6729C29.6291 9.37958 29.6291 10.5253 28.9224 11.2319L20.7795 19.3748Z" fill="#FF5200"/>
</g>
<defs>
<filter id="filter0_i_39_4452" x="-0.5" y="0" width="39" height="64.5234" filterUnits="userSpaceOnUse" color-interpolation-filters="sRGB">
<feFlood flood-opacity="0" result="BackgroundImageFix"/>
<feBlend mode="normal" in="SourceGraphic" in2="BackgroundImageFix" result="shape"/>
<feColorMatrix in="SourceAlpha" type="matrix" values="0 0 0 0 0 0 0 0 0 0 0 0 0 0 0 0 0 0 127 0" result="hardAlpha"/>
<feOffset dx="-1" dy="3"/>
<feGaussianBlur stdDeviation="1.5"/>
<feComposite in2="hardAlpha" operator="arithmetic" k2="-1" k3="1"/>
<feColorMatrix type="matrix" values="0 0 0 0 0.988963 0 0 0 0 0.432533 0 0 0 0 0.194603 0 0 0 1 0"/>
<feBlend mode="normal" in2="shape" result="effect1_innerShadow_39_4452"/>
</filter>
</defs>
</svg>
