<svg width="21" height="20" viewBox="0 0 21 20" fill="none" xmlns="http://www.w3.org/2000/svg">
<g clip-path="url(#clip0_39_4011)">
<path fill-rule="evenodd" clip-rule="evenodd" d="M0.166016 3.92801C0.166016 3.35969 0.39178 2.81465 0.793644 2.41278C1.19551 2.01092 1.74055 1.78516 2.30887 1.78516H18.0232C18.5915 1.78516 19.1365 2.01092 19.5384 2.41278C19.9403 2.81465 20.166 3.35969 20.166 3.92801V4.41658L10.7132 10.7194C10.5481 10.8187 10.3586 10.8697 10.166 10.8666C9.97346 10.8697 9.78388 10.8187 9.61887 10.7194L0.166016 4.41658V3.92801ZM0.166016 6.5623V16.0709C0.166016 16.6392 0.39178 17.1842 0.793644 17.5861C1.19551 17.988 1.74055 18.2137 2.30887 18.2137H18.0232C18.5915 18.2137 19.1365 17.988 19.5384 17.5861C19.9403 17.1842 20.166 16.6392 20.166 16.0709V6.5623L11.6989 12.208L11.6917 12.2137C11.2359 12.5036 10.7062 12.6559 10.166 12.6523C9.6303 12.6523 9.0903 12.5066 8.6403 12.2137L8.63316 12.208L0.166016 6.5623Z" fill="#8D8D8C"/>
</g>
<defs>
<clipPath id="clip0_39_4011">
<rect width="20" height="20" fill="white" transform="translate(0.166016)"/>
</clipPath>
</defs>
</svg>
