<svg width="21" height="20" viewBox="0 0 21 20" fill="none" xmlns="http://www.w3.org/2000/svg">
<path fill-rule="evenodd" clip-rule="evenodd" d="M2.74746 2.24746C2.81444 2.18049 2.90529 2.14286 3 2.14286H5.14286C5.73459 2.14286 6.21429 1.66316 6.21429 1.07143C6.21429 0.479694 5.73459 0 5.14286 0H3C2.33696 0 1.70107 0.263393 1.23223 0.732233C0.763393 1.20107 0.5 1.83696 0.5 2.5V4.64286C0.5 5.23459 0.979694 5.71429 1.57143 5.71429C2.16316 5.71429 2.64286 5.23459 2.64286 4.64286V2.5C2.64286 2.40529 2.68049 2.31444 2.74746 2.24746ZM20.5 15.3571C20.5 14.7654 20.0203 14.2857 19.4286 14.2857C18.8369 14.2857 18.3571 14.7654 18.3571 15.3571V17.5C18.3571 17.5947 18.3196 17.6856 18.2526 17.7526C18.1856 17.8196 18.0947 17.8571 18 17.8571H15.8571C15.2654 17.8571 14.7857 18.3369 14.7857 18.9286C14.7857 19.5203 15.2654 20 15.8571 20H18C18.663 20 19.2989 19.7366 19.7677 19.2677C20.2366 18.7989 20.5 18.163 20.5 17.5V15.3571ZM1.57143 14.2857C2.16316 14.2857 2.64286 14.7654 2.64286 15.3571V17.5C2.64286 17.5947 2.68049 17.6856 2.74746 17.7526C2.81444 17.8196 2.90529 17.8571 3 17.8571H5.14286C5.73459 17.8571 6.21429 18.3369 6.21429 18.9286C6.21429 19.5203 5.73459 20 5.14286 20H3C2.33696 20 1.70107 19.7366 1.23223 19.2677C0.763393 18.7989 0.5 18.163 0.5 17.5V15.3571C0.5 14.7654 0.979694 14.2857 1.57143 14.2857ZM15.8571 0C15.2654 0 14.7857 0.479694 14.7857 1.07143C14.7857 1.66316 15.2654 2.14286 15.8571 2.14286H18C18.0947 2.14286 18.1856 2.18049 18.2526 2.24746C18.3196 2.31444 18.3571 2.40529 18.3571 2.5V4.64286C18.3571 5.23459 18.8369 5.71429 19.4286 5.71429C20.0203 5.71429 20.5 5.23459 20.5 4.64286V2.5C20.5 1.83696 20.2366 1.20107 19.7677 0.732233C19.2989 0.263393 18.663 0 18 0H15.8571ZM10.4987 11.1092C7.78571 11.1092 5.47227 12.8197 4.57797 15.2211C4.41889 15.6483 4.75931 16.0717 5.21519 16.0717H15.7821C16.238 16.0717 16.5784 15.6483 16.4193 15.2211C15.525 12.8197 13.2116 11.1092 10.4987 11.1092ZM13.6544 6.37223C13.6544 8.11631 12.2406 9.53017 10.4965 9.53017C8.75239 9.53017 7.33853 8.11631 7.33853 6.37223C7.33853 4.62814 8.75239 3.21429 10.4965 3.21429C12.2406 3.21429 13.6544 4.62814 13.6544 6.37223Z" fill="#8D8D8C"/>
</svg>
