<svg width="14" height="20" viewBox="0 0 14 20" fill="none" xmlns="http://www.w3.org/2000/svg">
<path fill-rule="evenodd" clip-rule="evenodd" d="M0.668116 0.617297C1.05256 0.209299 1.5845 0 2.16389 0H11.5041C12.0833 0 12.6153 0.209299 12.9998 0.617297C13.3806 1.02146 13.5643 1.56426 13.5643 2.14286V17.8571C13.5643 18.4357 13.3806 18.9786 12.9998 19.3827C12.6153 19.7907 12.0833 20 11.5041 20H2.16389C1.5845 20 1.05256 19.7907 0.668116 19.3827C0.287287 18.9786 0.103516 18.4357 0.103516 17.8571V2.14286C0.103516 1.56426 0.287287 1.02146 0.668116 0.617297ZM6.83377 5.71429C7.62274 5.71429 8.26234 5.07469 8.26234 4.28571C8.26234 3.49674 7.62274 2.85714 6.83377 2.85714C6.0448 2.85714 5.4052 3.49674 5.4052 4.28571C5.4052 5.07469 6.0448 5.71429 6.83377 5.71429Z" fill="#8D8D8C"/>
</svg>
