<svg width="21" height="20" viewBox="0 0 21 20" fill="none" xmlns="http://www.w3.org/2000/svg">
<g clip-path="url(#clip0_39_4048)">
<path fill-rule="evenodd" clip-rule="evenodd" d="M17.3876 0.140316C17.7995 -0.0100421 18.2455 -0.0403216 18.674 0.0531507C19.1067 0.147559 19.5033 0.364242 19.8165 0.677439C20.1296 0.990636 20.3463 1.38718 20.4407 1.81993C20.5342 2.24838 20.5039 2.6945 20.3536 3.10625L15.2479 18.4091L15.2476 18.4101C15.1232 18.7864 14.9042 19.1246 14.6115 19.392C14.3196 19.6587 13.9643 19.846 13.5795 19.9363C13.1946 20.0301 12.7919 20.0221 12.4109 19.9133C12.0303 19.8046 11.6845 19.5988 11.4074 19.3163L8.66839 16.5897L5.79116 18.0776C5.5668 18.1936 5.29784 18.1824 5.0838 18.0483C4.86977 17.9143 4.74247 17.677 4.74903 17.4246L4.86699 12.8763L14.9312 5.56574C15.3302 5.27594 15.4187 4.71758 15.1289 4.31863C14.839 3.91965 14.2807 3.83117 13.8818 4.12097L3.64679 11.5556L1.17578 9.08454C0.908175 8.81713 0.710909 8.48718 0.6022 8.12481C0.494264 7.76503 0.476727 7.38423 0.551084 7.01611C0.625536 6.61395 0.80531 6.23867 1.07214 5.92857C1.3408 5.61634 1.68796 5.38153 2.07774 5.2484L2.08256 5.24675L17.3876 0.140316Z" fill="#F0F0F0"/>
</g>
<defs>
<clipPath id="clip0_39_4048">
<rect width="20" height="20" fill="white" transform="translate(0.5)"/>
</clipPath>
</defs>
</svg>
